# xmcd
# 
# Track frame offsets:
#     150
#     12193
#     23561
#     35070
#     48688
#     58352
#     84784
#     97103
#     110631
#     124048
#     138138
#     152033
#     162620
#     197961
#     209411
#     222621
#     236240
#     249594
#     266683
#     280080
# 
# Disc length: 3968
# 
# Revision: 1
# Processed by: cddbd v1.5.2PL0 Copyright (c) Steve Scherf et al.
# Submitted via: fre:ac v1.0.17
# 
DISCID=310f7e14
DTITLE=Various Artist - A Stack of Blues 60 Original Blues Classics CD-1
DYEAR=2014
DGENRE=Blues
TTITLE0=Freddy King - Hide Away
TTITLE1=Earl Hooker - That Man
TTITLE2=Albert King - I Need You By My Side
TTITLE3=Guitar Slim - The Things That I Used To Do
TTITLE4=B.B.King - My Baby´s Comin´ Home
TTITLE5=Joe Louis Walker -  Friends
TTITLE6=Muddy Waters - You Shook Me
TTITLE7=Jimmy Rodgers and Left Hand Frank - Oh Baby
TTITLE8=Howlin´ Wolf - The Wolf Is At Your Door
TTITLE9=Elmore James - Dust My Blues
TTITLE10=Bo Diddley - Before You Accuse Me
TTITLE11=John Lee Hooker - She´s Mine (Keep Your Hands To Yourself)
TTITLE12=Kirk Fletcher - I´m Not Your Fool
TTITLE13=Clarence Gatemouth Brown - Okie Dokie Stomp
TTITLE14=Lightnin´ Hopkins - Worried Life Blues
TTITLE15=Tarheel Slim - Number 9 Train
TTITLE16=Lightnin´ Slim - Lightnin´ Blues
TTITLE17=Jody Williams - Lucky You
TTITLE18=Wild Jimmy Spruill - Hard Grind
TTITLE19=Buddy Guy - When My Left Eye Jumps
EXTD=
EXTT0=
EXTT1=
EXTT2=
EXTT3=
EXTT4=
EXTT5=
EXTT6=
EXTT7=
EXTT8=
EXTT9=
EXTT10=
EXTT11=
EXTT12=
EXTT13=
EXTT14=
EXTT15=
EXTT16=
EXTT17=
EXTT18=
EXTT19=
PLAYORDER=
